<?xml version="1.0" encoding="UTF-8"?>
<!-- Generator: visioncortex VTracer 0.6.4 -->
<svg version="1.1" xmlns="http://www.w3.org/2000/svg" width="1024" height="1024">
<path d="M0 0 C337.92 0 675.84 0 1024 0 C1024 337.92 1024 675.84 1024 1024 C686.08 1024 348.16 1024 0 1024 C0 686.08 0 348.16 0 0 Z " fill="#050404" transform="translate(0,0)"/>
<path d="M0 0 C13.26 -0.37 26.51 -0.66 39.77 -0.83 C45.93 -0.91 52.08 -1.03 58.24 -1.21 C64.19 -1.38 70.13 -1.48 76.08 -1.52 C78.34 -1.55 80.6 -1.61 82.87 -1.69 C100.13 -2.33 100.13 -2.33 104.91 1.55 C108.14 5.32 110.24 9.48 112.14 14.04 C113.38 16.88 115.02 19.43 116.69 22.03 C117.79 23.85 118.9 25.68 120 27.5 C124 34.09 128.02 40.66 132.12 47.19 C136.27 53.77 140.28 60.43 144.27 67.1 C148.62 74.38 153.02 81.62 157.43 88.85 C160.73 94.27 164.03 99.69 167.32 105.12 C174.35 116.74 181.4 128.34 188.63 139.83 C196.33 152.06 204.02 164.29 211.44 176.69 C211.92 177.5 212.41 178.31 212.91 179.15 C213.84 180.71 214.77 182.26 215.69 183.81 C217.66 187.11 219.63 190.4 221.62 193.69 C222.54 195.21 222.54 195.21 223.48 196.76 C224.81 199.11 224.81 199.11 227 200 C227.39 198.93 227.39 198.93 227.8 197.84 C229.05 194.88 230.54 192.3 232.24 189.56 C232.89 188.51 233.54 187.46 234.21 186.38 C234.9 185.27 235.6 184.15 236.31 183 C237.03 181.83 237.76 180.67 238.48 179.5 C239.94 177.14 241.41 174.77 242.88 172.41 C245.38 168.39 247.87 164.36 250.36 160.33 C251.97 157.74 253.57 155.15 255.18 152.55 C261.13 142.95 267.04 133.31 272.93 123.66 C276.94 117.1 280.96 110.55 285 104 C286.33 101.83 287.67 99.67 289 97.5 C290 95.88 290 95.88 291.02 94.22 C292.29 92.16 293.56 90.09 294.82 88.03 C298.87 81.45 302.93 74.88 307 68.31 C317.12 51.98 327.2 35.62 337.2 19.22 C337.98 17.95 338.77 16.69 339.59 15.44 C341.12 12.95 341.12 12.95 342.19 9.78 C343.94 5.81 345.47 2.62 349 0 C356.29 -2.44 364.53 -1.51 372.09 -1.27 C374.37 -1.25 376.64 -1.23 378.92 -1.21 C384.89 -1.16 390.86 -1.04 396.83 -0.89 C402.93 -0.76 409.03 -0.7 415.13 -0.63 C427.09 -0.5 439.04 -0.27 451 0 C449.54 2.97 447.95 5.75 446.16 8.54 C445.6 9.42 445.04 10.3 444.46 11.21 C443.85 12.15 443.25 13.09 442.62 14.06 C441.35 16.06 440.08 18.05 438.8 20.05 C438.16 21.05 437.52 22.05 436.86 23.08 C434.16 27.31 431.49 31.56 428.81 35.81 C424.08 43.32 419.28 50.78 414.45 58.23 C410.4 64.46 406.43 70.73 402.47 77.02 C392.48 92.86 382.39 108.63 372.25 124.38 C368.87 129.63 365.52 134.9 362.19 140.19 C361.68 140.99 361.18 141.79 360.66 142.61 C358.07 146.71 355.49 150.81 352.92 154.91 C347.86 162.96 342.74 170.97 337.44 178.86 C331.82 187.23 326.51 195.78 321.18 204.33 C316.94 211.12 312.63 217.88 308.33 224.63 C304.39 230.81 300.47 236.99 296.56 243.19 C290.04 253.52 283.48 263.83 276.82 274.08 C276.37 274.77 275.92 275.46 275.45 276.18 C275.05 276.8 274.65 277.41 274.24 278.05 C273.83 278.69 273.42 279.34 273 280 C272.49 280.71 271.98 281.41 271.45 282.14 C269.64 285.7 269.57 288.76 269.6 292.66 C269.59 293.43 269.59 294.19 269.58 294.98 C269.56 297.53 269.57 300.09 269.57 302.64 C269.56 304.48 269.55 306.31 269.54 308.14 C269.51 313.12 269.5 318.09 269.49 323.07 C269.48 328.27 269.46 333.47 269.43 338.66 C269.39 348.51 269.36 358.36 269.34 368.2 C269.31 381.51 269.25 394.81 269.2 408.12 C269.11 429.08 269.06 450.04 269 471 C239.96 471 210.92 471 181 471 C181.08 457.82 181.16 444.63 181.24 431.05 C181.26 422.67 181.28 414.29 181.28 405.91 C181.28 392.62 181.3 379.34 181.41 366.05 C181.49 356.37 181.52 346.7 181.49 337.02 C181.48 331.9 181.49 326.78 181.56 321.67 C182.42 291.8 182.42 291.8 168.71 266.08 C165.65 262.37 163.18 258.26 160.62 254.19 C159.54 252.53 158.46 250.88 157.38 249.22 C153.05 242.57 148.86 235.82 144.67 229.08 C140.38 222.2 136.05 215.34 131.69 208.5 C127.62 202.12 123.57 195.73 119.56 189.31 C114.1 180.55 108.55 171.85 102.94 163.19 C92.66 147.33 82.57 131.35 72.49 115.36 C61.1 97.22 61.1 97.22 49.52 79.19 C44.86 72.04 40.28 64.87 35.88 57.56 C31.27 49.95 26.45 42.5 21.56 35.06 C16.33 27.09 11.11 19.11 6 11.06 C5.5 10.28 5 9.5 4.49 8.7 C4.04 7.98 3.59 7.27 3.12 6.54 C2.54 5.61 2.54 5.61 1.95 4.67 C1 3 1 3 0 0 Z " fill="#C9A051" transform="translate(288,277)"/>
<path d="M0 0 C3.73 3.37 5.84 6.44 6.37 11.52 C6.38 12.9 6.38 14.28 6.36 15.66 C6.36 16.43 6.37 17.19 6.37 17.98 C6.37 20.53 6.36 23.09 6.34 25.64 C6.34 27.48 6.34 29.31 6.34 31.14 C6.34 36.12 6.33 41.09 6.3 46.07 C6.29 51.27 6.28 56.47 6.28 61.66 C6.27 71.51 6.25 81.36 6.22 91.2 C6.18 104.51 6.16 117.81 6.14 131.12 C6.11 152.08 6.05 173.04 6 194 C35.04 194 64.08 194 94 194 C94 194.33 94 194.66 94 195 C82.32 195.18 70.63 195.34 58.95 195.49 C53.53 195.57 48.1 195.64 42.68 195.72 C37.45 195.8 32.21 195.87 26.98 195.94 C24.98 195.96 22.98 195.99 20.98 196.03 C18.19 196.07 15.4 196.11 12.6 196.14 C11.77 196.15 10.94 196.17 10.08 196.19 C6.18 196.21 4.33 196.22 1 194 C1.5 193.01 1.5 193.01 2 192 C3.53 183.23 3.13 174.18 3.1 165.31 C3.1 163.64 3.09 161.96 3.09 160.29 C3.09 156.71 3.08 153.13 3.08 149.55 C3.06 143.89 3.06 138.23 3.05 132.57 C3.04 120.57 3.02 108.57 3 96.56 C2.98 83.58 2.96 70.59 2.95 57.61 C2.94 51.98 2.93 46.35 2.92 40.72 C2.91 37.23 2.91 33.74 2.91 30.24 C2.9 28.62 2.9 27 2.89 25.38 C2.89 23.17 2.89 20.96 2.89 18.75 C2.88 17.51 2.88 16.27 2.88 15 C3 12 3 12 4 9 C3.34 9 2.68 9 2 9 C2 8.01 2 7.02 2 6 C1.34 5.67 0.68 5.34 0 5 C0 3.35 0 1.7 0 0 Z " fill="#130501" transform="translate(463,554)"/>
<path d="M0 0 C3.15 1.05 3.98 1.48 6 4 C6.47 5.11 6.95 6.23 7.44 7.38 C8.94 10.87 10.53 13.15 13 16 C13.52 16.7 14.03 17.4 14.56 18.12 C15.9 20.02 15.9 20.02 17.56 21.25 C19.91 24.11 20.24 27.41 21 31 C21.66 31 22.32 31 23 31 C24.55 33.32 25.84 35.68 27.06 38.19 C28.53 41.03 30.34 42.22 33 44 C32.67 44.99 32.34 45.98 32 47 C32.66 47 33.32 47 34 47 C34 105.41 34 163.82 34 224 C33.67 224 33.34 224 33 224 C32.67 227.63 32.34 231.26 32 235 C31.67 235 31.34 235 31 235 C31.01 234.06 31.01 233.12 31.02 232.15 C31.18 209.21 31.27 186.27 31.28 163.33 C31.29 152.24 31.32 141.15 31.41 130.05 C31.49 120.37 31.52 110.7 31.49 101.02 C31.48 95.9 31.49 90.78 31.56 85.67 C32.4 55.63 32.4 55.63 18.52 29.78 C16.38 27.27 14.74 24.6 13.03 21.79 C12 20.21 10.97 18.63 9.94 17.06 C9.41 16.25 8.88 15.44 8.34 14.61 C5.57 10.37 5.57 10.37 2.74 6.18 C0 2.19 0 2.19 0 0 Z " fill="#9E8448" transform="translate(438,513)"/>
<path d="M0 0 C0.33 0 0.66 0 1 0 C1 60.39 1 120.78 1 183 C0.34 183 -0.32 183 -1 183 C-1 181.35 -1 179.7 -1 178 C-25.42 178 -49.84 178 -75 178 C-75 177.34 -75 176.68 -75 176 C-50.58 176 -26.16 176 -1 176 C-1 164.45 -1 152.9 -1 141 C-0.9 122.02 -0.9 122.02 -0.85 115.54 C-0.84 114.09 -0.83 112.64 -0.81 111.19 C-0.81 110.46 -0.8 109.73 -0.8 108.98 C-0.77 105.12 -0.74 101.26 -0.71 97.4 C-0.66 90.16 -0.61 82.92 -0.55 75.68 C-0.49 67.41 -0.43 59.14 -0.37 50.87 C-0.25 33.91 -0.13 16.96 0 0 Z " fill="#C7A362" transform="translate(555,562)"/>
<path d="M0 0 C33.66 0 67.32 0 102 0 C100.44 3.11 98.81 6.04 97 9 C96.01 8.67 95.02 8.34 94 8 C95.75 4.12 95.75 4.12 98 3 C65.66 3 33.32 3 0 3 C0 2.01 0 1.02 0 0 Z " fill="#99814F" transform="translate(637,277)"/>
<path d="M0 0 C3.15 1.05 3.98 1.48 6 4 C6.47 5.11 6.95 6.23 7.44 7.38 C8.94 10.87 10.53 13.15 13 16 C13.52 16.7 14.03 17.4 14.56 18.12 C15.9 20.02 15.9 20.02 17.56 21.25 C19.91 24.11 20.24 27.41 21 31 C21.66 31 22.32 31 23 31 C24.55 33.32 25.84 35.68 27.06 38.19 C28.53 41.03 30.34 42.22 33 44 C32.67 45.98 32.34 47.96 32 50 C27.58 46.22 25.07 41.33 22.19 36.38 C18.57 30.24 14.92 24.22 10.73 18.45 C8.42 15.19 6.24 11.85 4.06 8.5 C3.66 7.89 3.26 7.27 2.84 6.64 C0 2.24 0 2.24 0 0 Z " fill="#BFA168" transform="translate(438,513)"/>
<path d="M0 0 C0.99 0.66 1.98 1.32 3 2 C2.67 2.99 2.34 3.98 2 5 C2.33 5.99 2.66 6.98 3 8 C2.01 8.5 2.01 8.5 1 9 C0.34 8.67 -0.32 8.34 -1 8 C-1.27 8.56 -1.54 9.11 -1.81 9.68 C-3.11 12.21 -4.53 14.63 -6 17.06 C-6.77 18.35 -6.77 18.35 -7.56 19.66 C-8.67 21.46 -9.83 23.24 -11 25 C-11.99 25 -12.98 25 -14 25 C-14.33 25.99 -14.66 26.98 -15 28 C-15.33 27.34 -15.66 26.68 -16 26 C-14.74 23.61 -13.43 21.35 -12 19.06 C-11.39 18.06 -11.39 18.06 -10.76 17.04 C-9.52 15.02 -8.26 13.01 -7 11 C-6.63 10.41 -6.26 9.82 -5.88 9.22 C-3.94 6.13 -1.98 3.06 0 0 Z " fill="#C5A35F" transform="translate(636,279)"/>
<path d="M0 0 C0.99 0.33 1.98 0.66 3 1 C-0.8 7.15 -4.6 13.3 -8.41 19.44 C-9.7 21.51 -10.97 23.59 -12.25 25.67 C-15.13 30.33 -17.87 34.37 -22 38 C-21.49 33.54 -19.8 31.42 -17 28 C-16.22 25.82 -16.22 25.82 -16 24 C-15.01 24 -14.02 24 -13 24 C-13 23.01 -13 22.02 -13 21 C-12.34 21 -11.68 21 -11 21 C-11 20.01 -11 19.02 -11 18 C-10.34 18 -9.68 18 -9 18 C-8.88 17.03 -8.75 16.06 -8.62 15.06 C-8.42 14.05 -8.21 13.04 -8 12 C-7.34 11.67 -6.68 11.34 -6 11 C-5.5 9.85 -5.01 8.69 -4.5 7.5 C-3 4 -3 4 -1 3 C-0.67 2.01 -0.34 1.02 0 0 Z " fill="#B89D63" transform="translate(591,504)"/>
<path d="M0 0 C0.99 0.5 0.99 0.5 2 1 C2 1.66 2 2.32 2 3 C3.65 2.67 5.3 2.34 7 2 C7 3.32 7 4.64 7 6 C7.66 6 8.32 6 9 6 C9 8.64 9 11.28 9 14 C9.66 14 10.32 14 11 14 C14 18.38 14 18.38 14 21 C14.66 21 15.32 21 16 21 C19.49 24.49 20.35 26.05 21 31 C20.01 31 19.02 31 18 31 C16.65 29.31 16.65 29.31 15.29 26.94 C14.79 26.08 14.28 25.22 13.76 24.33 C12.98 22.96 12.98 22.96 12.19 21.56 C11.16 19.79 10.14 18.02 9.11 16.25 C8.35 14.95 8.35 14.95 7.57 13.61 C5.54 10.24 3.35 7.01 1.09 3.79 C0 2 0 2 0 0 Z " fill="#C0A05E" transform="translate(307,306)"/>
<path d="M0 0 C3.31 1.1 4.43 1.99 6.12 5 C7 7 7 7 7 9 C8.88 10.11 8.88 10.11 11 11 C11.66 10.67 12.32 10.34 13 10 C14.06 11.81 14.06 11.81 15 14 C14.67 14.99 14.34 15.98 14 17 C14.99 17 15.98 17 17 17 C16.34 18.32 15.68 19.64 15 21 C15.66 21 16.32 21 17 21 C17 22.32 17 23.64 17 25 C17.99 25.33 18.98 25.66 20 26 C20 27.65 20 29.3 20 31 C16.18 26.5 13.12 21.61 10 16.62 C9.48 15.8 8.96 14.98 8.42 14.12 C5.5 9.48 2.69 4.79 0 0 Z " fill="#C2A05A" transform="translate(416,479)"/>
<path d="M0 0 C0.99 0.33 1.98 0.66 3 1 C-2.3 9.35 -7.64 17.68 -13 26 C-13.66 25.67 -14.32 25.34 -15 25 C-15 24.01 -15 23.02 -15 22 C-14.34 22 -13.68 22 -13 22 C-12.73 21.11 -12.46 20.23 -12.19 19.31 C-11.07 16.19 -9.96 13.67 -8 11 C-7.01 11 -6.02 11 -5 11 C-5.66 9.02 -6.32 7.04 -7 5 C-6.01 4.34 -5.02 3.68 -4 3 C-3.67 3.33 -3.34 3.66 -3 4 C-2.01 2.68 -1.02 1.36 0 0 Z " fill="#C19F61" transform="translate(695,341)"/>
<path d="M0 0 C1.32 0.66 2.64 1.32 4 2 C4 2.66 4 3.32 4 4 C3.34 4 2.68 4 2 4 C1.67 4.66 1.34 5.32 1 6 C0.34 6.66 -0.32 7.32 -1 8 C-1.4 10.32 -1.74 12.66 -2 15 C-2.99 15 -3.98 15 -5 15 C-5.25 15.62 -5.5 16.24 -5.75 16.88 C-7.22 19.38 -8.41 19.83 -11 21 C-11.33 21.66 -11.66 22.32 -12 23 C-12.66 22.67 -13.32 22.34 -14 22 C-13.41 21.08 -12.82 20.16 -12.21 19.22 C-8.1 12.84 -4 6.45 0 0 Z " fill="#150B06" transform="translate(578,529)"/>
<path d="M0 0 C0.99 0 1.98 0 3 0 C4 3 4 3 3.23 4.71 C2.82 5.33 2.4 5.95 1.97 6.59 C1.28 7.64 1.28 7.64 0.58 8.7 C0.08 9.44 -0.42 10.18 -0.94 10.94 C-1.44 11.69 -1.94 12.45 -2.45 13.22 C-3.96 15.49 -5.48 17.74 -7 20 C-7.84 21.26 -8.68 22.53 -9.52 23.79 C-11.34 26.53 -13.16 29.27 -15 32 C-15.66 31.67 -16.32 31.34 -17 31 C-16.67 29.35 -16.34 27.7 -16 26 C-15.01 25.67 -14.02 25.34 -13 25 C-11.29 22 -11.29 22 -10 19 C-9.34 19 -8.68 19 -8 19 C-7.63 17.67 -7.63 17.67 -7.25 16.31 C-6 13 -6 13 -4 10.62 C-1.36 7.16 -0.86 4.25 0 0 Z " fill="#BDA062" transform="translate(716,305)"/>
<path d="M0 0 C3.1 3.74 5.83 7.65 8.44 11.75 C8.83 12.36 9.22 12.97 9.62 13.6 C12.61 18.3 15.41 23.08 18 28 C16 28 16 28 13.88 26.12 C12 24 12 24 12 22 C11.34 22 10.68 22 10 22 C9.92 20.89 9.83 19.77 9.75 18.62 C9.5 17.43 9.25 16.23 9 15 C7.67 14.33 6.33 13.66 5 13 C3.55 10.91 3.55 10.91 2.31 8.5 C1.9 7.71 1.48 6.91 1.05 6.09 C0.37 4.73 -0.32 3.37 -1 2 C-0.67 1.34 -0.34 0.68 0 0 Z " fill="#28190B" transform="translate(384,429)"/>
<path d="M0 0 C1.17 3.52 1.16 4.51 0 8 C-2.73 12.39 -5.14 15.94 -10 18 C-10 18.66 -10 19.32 -10 20 C-10.66 19.67 -11.32 19.34 -12 19 C-10.57 16.58 -9.13 14.17 -7.69 11.75 C-7.28 11.07 -6.88 10.39 -6.46 9.68 C-4.46 6.32 -2.44 3.07 0 0 Z " fill="#1D1106" transform="translate(631,446)"/>
<path d="M0 0 C5.49 4.66 8.55 10.76 12 17 C11.34 17.66 10.68 18.32 10 19 C8.5 17.62 8.5 17.62 7 16 C7 15.34 7 14.68 7 14 C6.34 14 5.68 14 5 14 C5 13.01 5 12.02 5 11 C4.2 10.55 3.39 10.09 2.56 9.62 C0 8 0 8 -0.88 5.5 C-1 3 -1 3 0 0 Z " fill="#BD9F61" transform="translate(403,299)"/>
<path d="M0 0 C0.66 0.66 1.32 1.32 2 2 C0.24 4.94 -1.54 7.88 -3.31 10.81 C-4.06 12.06 -4.06 12.06 -4.83 13.34 C-5.31 14.14 -5.8 14.94 -6.3 15.77 C-6.97 16.88 -6.97 16.88 -7.65 18.01 C-8.95 19.92 -10.31 21.43 -12 23 C-12 21.02 -12 19.04 -12 17 C-11.34 17 -10.68 17 -10 17 C-9.86 16.4 -9.71 15.8 -9.56 15.19 C-9.11 13.44 -8.57 11.71 -8 10 C-7.34 10 -6.68 10 -6 10 C-5.34 8.35 -4.68 6.7 -4 5 C-3.01 5 -2.02 5 -1 5 C-0.67 3.35 -0.34 1.7 0 0 Z " fill="#1F1007" transform="translate(572,379)"/>
<path d="M0 0 C0.66 0.33 1.32 0.66 2 1 C1.25 7.62 1.25 7.62 -1 11 C-2.31 12.04 -3.63 13.04 -5 14 C-5.99 13.34 -6.98 12.68 -8 12 C-6.86 10.19 -5.71 8.37 -4.56 6.56 C-3.61 5.05 -3.61 5.05 -2.63 3.5 C-1 1 -1 1 0 0 Z " fill="#C4A558" transform="translate(536,442)"/>
<path d="M0 0 C1 3 1 3 0 5.06 C-0.33 5.7 -0.66 6.34 -1 7 C-0.67 7.66 -0.34 8.32 0 9 C-0.66 9 -1.32 9 -2 9 C-2.14 9.58 -2.29 10.15 -2.44 10.75 C-2.96 12.83 -3.48 14.92 -4 17 C-4.99 17 -5.98 17 -7 17 C-7.66 17.66 -8.32 18.32 -9 19 C-9.66 19 -10.32 19 -11 19 C-9.41 14.44 -7.01 10.69 -4.38 6.69 C-3.95 6.04 -3.53 5.4 -3.1 4.73 C-2.07 3.15 -1.04 1.58 0 0 Z " fill="#1E120B" transform="translate(732,287)"/>
<path d="M0 0 C0.66 1.32 1.32 2.64 2 4 C1.4 4.89 0.8 5.77 0.19 6.69 C-3.44 11.47 -3.44 11.47 -5 17 C-6.98 17.33 -8.96 17.66 -11 18 C-7.66 11.76 -4.01 5.83 0 0 Z " fill="#1D1007" transform="translate(701,336)"/>
<path d="M0 0 C2.52 2.31 4.18 4.73 5.92 7.67 C6.45 8.56 6.98 9.45 7.53 10.37 C8.08 11.3 8.62 12.23 9.19 13.19 C9.75 14.13 10.31 15.07 10.88 16.04 C12.26 18.36 13.63 20.68 15 23 C14.01 23 13.02 23 12 23 C11.67 22.01 11.34 21.02 11 20 C10.48 19.48 9.97 18.97 9.44 18.44 C8.96 17.96 8.49 17.49 8 17 C8 16.34 8 15.68 8 15 C7.01 14.67 6.02 14.34 5 14 C4.12 12.36 4.12 12.36 3.44 10.31 C3.19 9.6 2.95 8.88 2.7 8.14 C2.47 7.44 2.24 6.73 2 6 C1.61 4.85 1.22 3.69 0.81 2.5 C0.41 1.26 0.41 1.26 0 0 Z " fill="#BC9F60" transform="translate(442,362)"/>
<path d="M0 0 C1.56 1.12 1.56 1.12 3 3 C2.69 6.19 2.69 6.19 2 9 C0.64 8.97 0.64 8.97 -0.75 8.94 C-3.43 8.99 -5.47 9.22 -8 10 C-4.38 3.12 -4.38 3.12 -1 2 C-0.67 1.34 -0.34 0.68 0 0 Z " fill="#120805" transform="translate(741,277)"/>
<path d="M0 0 C0.66 0.99 1.32 1.98 2 3 C-0.35 7.93 -2.86 12.52 -6 17 C-6.99 16.67 -7.98 16.34 -9 16 C-7.57 12.04 -5.67 8.71 -3.38 5.19 C-2.74 4.21 -2.11 3.24 -1.46 2.23 C-0.74 1.13 -0.74 1.13 0 0 Z " fill="#1B0E06" transform="translate(688,356)"/>
<path d="M0 0 C0.33 1.32 0.66 2.64 1 4 C0.01 4.33 -0.98 4.66 -2 5 C-2.12 6.05 -2.25 7.1 -2.38 8.19 C-2.92 11.51 -3.37 14.08 -5 17 C-7.12 17.81 -7.12 17.81 -9 18 C-9 13.36 -7.48 11.05 -5.06 7.31 C-4.69 6.72 -4.32 6.13 -3.93 5.51 C-1.2 1.2 -1.2 1.2 0 0 Z " fill="#BC9F63" transform="translate(607,327)"/>
<path d="M0 0 C0.99 0 1.98 0 3 0 C3 0.99 3 1.98 3 3 C3.99 3.33 4.98 3.66 6 4 C6.68 6 7.34 8 8 10 C8.66 10.82 9.32 11.65 10 12.5 C12.2 15.25 13.06 17.64 14 21 C10.48 19.83 10.16 19.11 8.3 16.04 C7.81 15.24 7.33 14.44 6.83 13.61 C6.33 12.77 5.83 11.93 5.31 11.06 C4.8 10.23 4.29 9.39 3.76 8.53 C0 2.28 0 2.28 0 0 Z " fill="#C3A469" transform="translate(398,449)"/>
<path d="M0 0 C0.66 0.66 1.32 1.32 2 2 C-0.31 5.96 -2.62 9.92 -5 14 C-8 13 -8 13 -9.69 9.94 C-10.12 8.97 -10.55 8 -11 7 C-8.52 7.99 -8.52 7.99 -6 9 C-3.03 4.55 -3.03 4.55 0 0 Z " fill="#201203" transform="translate(520,463)"/>
<path d="M0 0 C1 3 1.51 5.88 2 9 C1.24 9.27 0.47 9.54 -0.31 9.81 C-2.87 10.94 -4.2 11.91 -6 14 C-6.66 13.34 -7.32 12.68 -8 12 C-5.36 8.04 -2.72 4.08 0 0 Z " fill="#150B0C" transform="translate(710,322)"/>
<path d="M0 0 C0.33 0 0.66 0 1 0 C1.66 5.25 0.07 8.15 -2.61 12.46 C-3.3 13.22 -3.3 13.22 -4 14 C-4.99 14 -5.98 14 -7 14 C-7.33 14.99 -7.66 15.98 -8 17 C-8.33 16.34 -8.66 15.68 -9 15 C-7.62 12.38 -6.18 9.89 -4.62 7.38 C-4.2 6.67 -3.77 5.96 -3.34 5.23 C-2.26 3.47 -1.13 1.73 0 0 Z " fill="#B6985A" transform="translate(629,290)"/>
<path d="M0 0 C0.66 0.66 1.32 1.32 2 2 C0.71 4.32 -0.58 6.63 -1.88 8.94 C-2.24 9.6 -2.6 10.26 -2.98 10.94 C-5.77 15.89 -5.77 15.89 -8 17 C-6.6 8.2 -6.6 8.2 -5 5 C-4.01 4.67 -3.02 4.34 -2 4 C-2 3.34 -2 2.68 -2 2 C-1.34 2 -0.68 2 0 2 C0 1.34 0 0.68 0 0 Z " fill="#150F08" transform="translate(584,359)"/>
<path d="M0 0 C3.95 1.5 5.43 3.71 7.62 7.25 C8.22 8.18 8.81 9.12 9.41 10.08 C11 13 12.05 15.82 13 19 C9.52 17.84 9.28 17.27 7.52 14.22 C7.08 13.46 6.64 12.7 6.18 11.92 C5.73 11.12 5.28 10.32 4.81 9.5 C4.35 8.7 3.89 7.9 3.41 7.08 C0 1.17 0 1.17 0 0 Z " fill="#190D04" transform="translate(421,326)"/>
<path d="M0 0 C3 1 3 1 5 4 C5.33 4 5.66 4 6 4 C6.27 4.95 6.54 5.9 6.81 6.88 C7.75 10.25 7.75 10.25 11 12 C11.69 15.62 11.69 15.62 12 19 C8.56 15.85 6.14 12.34 3.75 8.38 C3.39 7.79 3.02 7.2 2.65 6.6 C0 2.26 0 2.26 0 0 Z " fill="#C0A067" transform="translate(342,361)"/>
<path d="M0 0 C0.99 1.32 1.98 2.64 3 4 C1.68 4 0.36 4 -1 4 C-0.94 5.14 -0.94 5.14 -0.88 6.31 C-1 9 -1 9 -3 12 C-3.66 12 -4.32 12 -5 12 C-5.33 13.65 -5.66 15.3 -6 17 C-6.99 16.01 -7.98 15.02 -9 14 C-6.03 9.38 -3.06 4.76 0 0 Z " fill="#BC9E5E" transform="translate(619,307)"/>
<path d="M0 0 C0.55 2.08 1 3.84 1 6 C0.34 6 -0.32 6 -1 6 C-2.87 9.59 -4.43 13.28 -6 17 C-6.66 16.34 -7.32 15.68 -8 15 C-7.67 11.21 -5.48 8.37 -3.44 5.25 C-2.8 4.27 -2.16 3.28 -1.5 2.27 C-1 1.52 -0.51 0.77 0 0 Z " fill="#BEA05E" transform="translate(573,382)"/>
<path d="M0 0 C2.94 2.6 4.72 5.63 6.69 9 C7.31 10.05 7.93 11.1 8.57 12.19 C10 15 10 15 10 18 C9.34 18 8.68 18 8 18 C3.23 12.49 1.57 7.05 0 0 Z " fill="#BB9E64" transform="translate(392,280)"/>
<path d="M0 0 C8.58 0 17.16 0 26 0 C24 5 24 5 22 8 C21.01 7.67 20.02 7.34 19 7 C20.75 3.12 20.75 3.12 23 2 C11.62 1.5 11.62 1.5 0 1 C0 0.67 0 0.34 0 0 Z " fill="#CFB371" transform="translate(712,278)"/>
<path d="M0 0 C2 3 2 3 2 5 C1.34 5 0.68 5 0 5 C-0.43 5.87 -0.43 5.87 -0.88 6.75 C-1.92 8.83 -2.96 10.92 -4 13 C-4.66 13 -5.32 13 -6 13 C-6 13.66 -6 14.32 -6 15 C-6.99 14.67 -7.98 14.34 -9 14 C-6.03 9.38 -3.06 4.76 0 0 Z " fill="#1A1105" transform="translate(650,416)"/>
<path d="M0 0 C2 2 2 2 3 5 C3.64 5.62 4.28 6.24 4.94 6.88 C7.16 9.16 7.89 11.06 9 14 C9.66 14.33 10.32 14.66 11 15 C10.67 16.32 10.34 17.64 10 19 C7.03 15.44 4.54 11.8 2.19 7.81 C1.56 6.77 0.94 5.72 0.29 4.64 C-0.13 3.77 -0.56 2.9 -1 2 C-0.67 1.34 -0.34 0.68 0 0 Z " fill="#1F1304" transform="translate(498,449)"/>
<path d="M0 0 C1 3 1 3 0.31 5.56 C-1.16 8.3 -2.14 8.95 -5 10 C-5 11.98 -5 13.96 -5 16 C-8 16 -8 16 -10 15 C-5.05 7.57 -5.05 7.57 0 0 Z " fill="#1E1206" transform="translate(601,493)"/>
<path d="M0 0 C0.66 0 1.32 0 2 0 C0.53 5.73 -2.44 10.34 -6 15 C-6.33 15 -6.66 15 -7 15 C-7.75 12.25 -7.75 12.25 -8 9 C-6.25 6.62 -6.25 6.62 -4 5 C-3.01 5 -2.02 5 -1 5 C-0.67 3.35 -0.34 1.7 0 0 Z " fill="#1D1107" transform="translate(535,439)"/>
<path d="M0 0 C0.93 3.01 1.04 3.87 0 7 C0.33 7.99 0.66 8.98 1 10 C1.66 10 2.32 10 3 10 C3.66 12.31 4.32 14.62 5 17 C5.66 17 6.32 17 7 17 C7 17.66 7 18.32 7 19 C3.12 17.71 2.43 16.09 0.25 12.69 C-0.7 11.24 -0.7 11.24 -1.67 9.76 C-3 7 -3 7 -2.83 4.83 C-2 3 -2 3 0 0 Z " fill="#C3A569" transform="translate(390,427)"/>
<path d="M0 0 C0.99 0 1.98 0 3 0 C6.64 3.97 8.88 7.76 10 13 C9.01 13 8.02 13 7 13 C5.18 10.41 5.18 10.41 3.31 7.06 C2.38 5.41 2.38 5.41 1.43 3.72 C0 1 0 1 0 0 Z " fill="#201107" transform="translate(471,408)"/>
<path d="M0 0 C0.66 0.33 1.32 0.66 2 1 C0.64 7.04 -2.86 10.63 -7 15 C-7.66 14.67 -8.32 14.34 -9 14 C-6.03 9.38 -3.06 4.76 0 0 Z " fill="#C1A45D" transform="translate(585,362)"/>
<path d="M0 0 C1.65 0 3.3 0 5 0 C5.96 2.89 6 5 6 8 C6.66 8 7.32 8 8 8 C7.67 9.65 7.34 11.3 7 13 C4.38 10.63 2.64 8.13 1 5 C1 4.01 1 3.02 1 2 C0.67 1.34 0.34 0.68 0 0 Z " fill="#C79E56" transform="translate(409,465)"/>
<path d="M0 0 C0.33 0 0.66 0 1 0 C1 1.65 1 3.3 1 5 C0.34 5 -0.32 5 -1 5 C-1 6.98 -1 8.96 -1 11 C-1.66 11 -2.32 11 -3 11 C-3 11.99 -3 12.98 -3 14 C-3.66 14 -4.32 14 -5 14 C-5 13.34 -5 12.68 -5 12 C-5.66 11.67 -6.32 11.34 -7 11 C-5.86 9.16 -4.71 7.33 -3.56 5.5 C-2.92 4.48 -2.29 3.46 -1.63 2.41 C-0.82 1.22 -0.82 1.22 0 0 Z " fill="#1A0F07" transform="translate(669,386)"/>
<path d="M0 0 C5.77 2.65 8.61 7.2 11 13 C10.67 13.99 10.34 14.98 10 16 C5.72 11.22 2.96 5.64 0 0 Z " fill="#211107" transform="translate(450,374)"/>
<path d="M0 0 C0.99 0 1.98 0 3 0 C4.05 1.64 5.05 3.3 6 5 C6.66 5.33 7.32 5.66 8 6 C9.73 9.45 10.22 12.16 10 16 C5.72 11.22 2.96 5.64 0 0 Z " fill="#1C0F03" transform="translate(436,351)"/>
<path d="M0 0 C2.45 0.87 2.45 0.87 5 2 C5.81 4.12 5.81 4.12 6 6 C6.66 6 7.32 6 8 6 C8.33 7.98 8.66 9.96 9 12 C9.66 12 10.32 12 11 12 C10.67 12.99 10.34 13.98 10 15 C7 12.37 5.28 9.26 3.31 5.81 C2.69 4.73 2.07 3.64 1.43 2.52 C0.96 1.69 0.48 0.86 0 0 Z " fill="#1C0F04" transform="translate(480,423)"/>
<path d="M0 0 C2.96 3.47 5.08 6.87 7 11 C6.01 11 5.02 11 4 11 C3.34 10.34 2.68 9.68 2 9 C1.01 9.33 0.02 9.66 -1 10 C-1.12 2.25 -1.12 2.25 0 0 Z " fill="#190D09" transform="translate(377,418)"/>
<path d="M0 0 C3.97 3.41 5.87 7.33 8 12 C7.01 12.33 6.02 12.66 5 13 C1 7.38 1 7.38 1 4 C0.34 4 -0.32 4 -1 4 C-0.67 2.68 -0.34 1.36 0 0 Z " fill="#191005" transform="translate(362,395)"/>
<path d="M0 0 C2.31 0.66 4.62 1.32 7 2 C7.12 3.13 7.25 4.27 7.38 5.44 C7.68 7.2 7.68 7.2 8 9 C8.66 9.33 9.32 9.66 10 10 C9.67 11.32 9.34 12.64 9 14 C7.68 12.23 6.37 10.46 5.06 8.69 C4.33 7.7 3.6 6.72 2.85 5.7 C1 3 1 3 0 0 Z " fill="#BE9E60" transform="translate(329,342)"/>
<path d="M0 0 C3.97 3.41 5.87 7.33 8 12 C7.34 12.66 6.68 13.32 6 14 C5.67 13.01 5.34 12.02 5 11 C4.34 11 3.68 11 3 11 C3 9.68 3 8.36 3 7 C2.34 7 1.68 7 1 7 C0.67 4.69 0.34 2.38 0 0 Z " fill="#1A1108" transform="translate(416,480)"/>
<path d="M0 0 C0.66 0 1.32 0 2 0 C3.56 2.34 4.86 4.71 6.06 7.25 C6.88 9.18 6.88 9.18 9 10 C9 10.99 9 11.98 9 13 C9.66 13 10.32 13 11 13 C11.33 14.32 11.66 15.64 12 17 C11.34 17.33 10.68 17.66 10 18 C8.33 15.38 6.66 12.75 5 10.12 C4.52 9.38 4.05 8.63 3.55 7.86 C3.1 7.15 2.65 6.43 2.19 5.7 C1.77 5.04 1.35 4.38 0.92 3.7 C0 2 0 2 0 0 Z " fill="#B79E64" transform="translate(366,399)"/>
<path d="M0 0 C0.99 0.33 1.98 0.66 3 1 C0.03 5.95 -2.94 10.9 -6 16 C-7 12 -7 12 -6.19 9.81 C-5 8 -5 8 -3 7 C-2.35 4.98 -2.35 4.98 -2 3 C-1.34 3 -0.68 3 0 3 C0 2.01 0 1.02 0 0 Z " fill="#1D1204" transform="translate(593,344)"/>
<path d="M0 0 C0.99 0.33 1.98 0.66 3 1 C0.36 5.29 -2.28 9.58 -5 14 C-7 11 -7 11 -7 9 C-6.02 7.98 -5.02 6.98 -4 6 C-3.34 5.01 -2.68 4.02 -2 3 C-1.34 3 -0.68 3 0 3 C0 2.01 0 1.02 0 0 Z " fill="#BB9A60" transform="translate(639,429)"/>
<path d="M0 0 C1.32 0.33 2.64 0.66 4 1 C0.7 5.95 -2.6 10.9 -6 16 C-6.33 14.68 -6.66 13.36 -7 12 C-5.69 10.5 -5.69 10.5 -4 9 C-2.82 6.9 -2.82 6.9 -2 5 C-1.34 5 -0.68 5 0 5 C0 3.35 0 1.7 0 0 Z " fill="#BA9D65" transform="translate(656,401)"/>
<path d="M0 0 C4.2 3.72 7 8.32 10 13 C9.67 13.66 9.34 14.32 9 15 C5.18 11.6 2.29 7.56 0 3 C0 2.01 0 1.02 0 0 Z " fill="#191106" transform="translate(437,514)"/>
<path d="M0 0 C0.66 0 1.32 0 2 0 C2.33 0.33 2.66 0.66 3 1 C3.99 0.67 4.98 0.34 6 0 C6.33 0.99 6.66 1.98 7 3 C5.19 5.69 5.19 5.69 3 8 C2.34 8 1.68 8 1 8 C1 6.68 1 5.36 1 4 C0.34 4 -0.32 4 -1 4 C-0.67 2.68 -0.34 1.36 0 0 Z " fill="#BD9C52" transform="translate(611,465)"/>
<path d="M0 0 C2.91 3.53 5.72 7.03 8 11 C7.61 13.18 7.61 13.18 7 15 C6.04 13.59 5.08 12.17 4.12 10.75 C3.32 9.57 3.32 9.57 2.51 8.36 C1.17 6.27 -0.07 4.3 -1 2 C-0.67 1.34 -0.34 0.68 0 0 Z " fill="#1D0E04" transform="translate(384,429)"/>
<path d="M0 0 C1 3 1 3 0.22 5.04 C-0.16 5.75 -0.54 6.46 -0.94 7.19 C-1.32 7.9 -1.7 8.62 -2.09 9.36 C-2.39 9.9 -2.69 10.44 -3 11 C-3.66 11 -4.32 11 -5 11 C-5.66 12.32 -6.32 13.64 -7 15 C-7.33 14.34 -7.66 13.68 -8 13 C-6.76 10.71 -5.47 8.56 -4.06 6.38 C-3.68 5.76 -3.29 5.15 -2.89 4.52 C-1.94 3.01 -0.97 1.5 0 0 Z " fill="#B89E64" transform="translate(527,456)"/>
<path d="M0 0 C3.97 1.32 4.3 2.91 6.19 6.56 C6.72 7.57 7.25 8.59 7.79 9.63 C8.19 10.41 8.59 11.19 9 12 C8.01 12.5 8.01 12.5 7 13 C6.66 12.52 6.32 12.04 5.98 11.54 C5.53 10.91 5.08 10.28 4.62 9.62 C3.96 8.69 3.96 8.69 3.29 7.73 C1.97 5.88 1.97 5.88 0 4 C0 2.68 0 1.36 0 0 Z " fill="#B99A5E" transform="translate(466,403)"/>
<path d="M0 0 C3.08 2.77 4.69 5.06 6 9 C5.01 9.33 4.02 9.66 3 10 C-1.06 4.58 -1.06 4.58 -0.75 1.62 C-0.38 0.82 -0.38 0.82 0 0 Z " fill="#1E140D" transform="translate(308,310)"/>
<path d="M0 0 C1.81 0.06 1.81 0.06 4 1 C5.69 4.44 5.69 4.44 7 8 C7.33 8.66 7.66 9.32 8 10 C7.34 10.66 6.68 11.32 6 12 C4.99 10.38 4 8.75 3 7.12 C2.44 6.22 1.89 5.32 1.31 4.38 C0 2 0 2 0 0 Z " fill="#1E1105" transform="translate(403,296)"/>
<path d="M0 0 C2.05 2.05 2.64 3.27 3.62 5.94 C3.89 6.63 4.15 7.32 4.41 8.03 C5 10 5 10 5 13 C4.34 13 3.68 13 3 13 C2.3 11.4 1.62 9.8 0.94 8.19 C0.55 7.29 0.17 6.4 -0.22 5.48 C-1 3 -1 3 0 0 Z " fill="#D1A65B" transform="translate(300,288)"/>
<path d="M0 0 C0.99 0.33 1.98 0.66 3 1 C-0.96 6.94 -0.96 6.94 -5 13 C-5.33 11.68 -5.66 10.36 -6 9 C-5.34 8.34 -4.68 7.68 -4 7 C-3.3 5.68 -2.63 4.35 -2 3 C-1.34 3 -0.68 3 0 3 C0 2.01 0 1.02 0 0 Z " fill="#C0A267" transform="translate(565,545)"/>
<path d="M0 0 C2 0 2 0 4.12 1.75 C6 4 6 4 6 8 C6.99 8.33 7.98 8.66 9 9 C9 10.65 9 12.3 9 14 C5.26 9.7 2.66 5 0 0 Z " fill="#B89C63" transform="translate(427,496)"/>
<path d="M0 0 C3.08 2.77 4.69 5.06 6 9 C5.01 9.5 5.01 9.5 4 10 C3.67 9.34 3.34 8.68 3 8 C2.34 8 1.68 8 1 8 C0.34 5.69 -0.32 3.38 -1 1 C-0.67 0.67 -0.34 0.34 0 0 Z " fill="#1E1507" transform="translate(348,373)"/>
<path d="M0 0 C0.66 1.32 1.32 2.64 2 4 C0.62 7.25 0.62 7.25 -1 10 C-2.32 9.67 -3.64 9.34 -5 9 C-3.35 6.03 -1.7 3.06 0 0 Z " fill="#180E06" transform="translate(719,308)"/>
<path d="M0 0 C0.99 0.66 1.98 1.32 3 2 C-0.47 6.95 -0.47 6.95 -4 12 C-4.33 10.68 -4.66 9.36 -5 8 C-3.12 5.44 -3.12 5.44 -1 3 C-0.67 2.01 -0.34 1.02 0 0 Z " fill="#BFA162" transform="translate(727,290)"/>
<path d="M0 0 C0.99 0 1.98 0 3 0 C4.32 2.64 5.64 5.28 7 8 C5.35 8.33 3.7 8.66 2 9 C1.34 6.03 0.68 3.06 0 0 Z " fill="#130D02" transform="translate(291,286)"/>
<path d="M0 0 C0.66 0.33 1.32 0.66 2 1 C0.63 5 -1.26 7.8 -4 11 C-4.37 7.06 -4.3 5.43 -2 2.12 C-1.34 1.42 -0.68 0.72 0 0 Z " fill="#241307" transform="translate(632,281)"/>
<path d="M0 0 C0.99 0.33 1.98 0.66 3 1 C3 2.98 3 4.96 3 7 C1.35 7.33 -0.3 7.66 -2 8 C-2.33 7.01 -2.66 6.02 -3 5 C-1.56 2.31 -1.56 2.31 0 0 Z " fill="#1D1509" transform="translate(563,552)"/>
<path d="M0 0 C2.99 1.1 3.85 1.68 5.25 4.62 C5.5 5.41 5.75 6.19 6 7 C5.34 7 4.68 7 4 7 C4 6.34 4 5.68 4 5 C2.02 5.99 2.02 5.99 0 7 C-1.12 2.25 -1.12 2.25 0 0 Z " fill="#181006" transform="translate(450,536)"/>
<path d="M0 0 C1.98 0 3.96 0 6 0 C4.35 2.97 2.7 5.94 1 9 C-1.09 4.82 -1.17 4.2 0 0 Z " fill="#1D1008" transform="translate(554,403)"/>
<path d="M0 0 C2.62 2.37 4.45 4.81 6 8 C5.69 10.31 5.69 10.31 5 12 C4.67 11.01 4.34 10.02 4 9 C3.34 9 2.68 9 2 9 C2 8.01 2 7.02 2 6 C1.34 5.67 0.68 5.34 0 5 C0 3.35 0 1.7 0 0 Z " fill="#211206" transform="translate(463,554)"/>
<path d="M0 0 C0.33 0 0.66 0 1 0 C1.33 2.31 1.66 4.62 2 7 C0.02 7.33 -1.96 7.66 -4 8 C-4.33 6.68 -4.66 5.36 -5 4 C-4.01 3.67 -3.02 3.34 -2 3 C-1.67 2.34 -1.34 1.68 -1 1 C-0.67 0.67 -0.34 0.34 0 0 Z " fill="#CAA462" transform="translate(614,319)"/>
<path d="M0 0 C1.32 0.99 2.64 1.98 4 3 C4.66 2.34 5.32 1.68 6 1 C5.37 3.93 4.41 6.36 3 9 C0.94 6.19 0.94 6.19 -1 3 C-0.67 2.01 -0.34 1.02 0 0 Z " fill="#1A100A" transform="translate(399,287)"/>
<path d="M0 0 C1 3 1 3 0.31 5.44 C-1.1 8.2 -2.7 9.93 -5 12 C-5.66 11.67 -6.32 11.34 -7 11 C-4.69 7.37 -2.38 3.74 0 0 Z " fill="#2A1907" transform="translate(571,540)"/>
<path d="M0 0 C0.99 0.33 1.98 0.66 3 1 C3 1.66 3 2.32 3 3 C3.66 3 4.32 3 5 3 C5.99 4.98 6.98 6.96 8 9 C7.01 9.33 6.02 9.66 5 10 C4.16 8.71 3.33 7.42 2.5 6.12 C2.04 5.41 1.57 4.69 1.09 3.95 C0 2 0 2 0 0 Z " fill="#B5995E" transform="translate(456,541)"/>
<path d="M0 0 C3 1 3 1 4.75 3.44 C5.37 4.71 5.37 4.71 6 6 C5.67 6.66 5.34 7.32 5 8 C2.5 6.81 2.5 6.81 0 5 C-0.31 2.31 -0.31 2.31 0 0 Z " fill="#C1A263" transform="translate(436,354)"/>
<path d="M0 0 C2 0 2 0 3.44 1.06 C5.67 3.83 6.81 6.67 8 10 C7.67 10.99 7.34 11.98 7 13 C5.83 11.02 4.66 9.04 3.5 7.06 C2.85 5.96 2.2 4.86 1.53 3.72 C0 1 0 1 0 0 Z " fill="#BF9E67" transform="translate(295,288)"/>
<path d="M0 0 C0.66 0 1.32 0 2 0 C3.51 1.53 3.51 1.53 5.12 3.5 C5.66 4.15 6.2 4.8 6.76 5.47 C7.17 5.97 7.58 6.48 8 7 C7.34 8.32 6.68 9.64 6 11 C4.02 7.37 2.04 3.74 0 0 Z " fill="#1E0F04" transform="translate(391,277)"/>
<path d="M0 0 C0.99 0 1.98 0 3 0 C2.35 3.49 0.9 6.03 -1 9 C-3 6 -3 6 -3 4 C-2.34 3.67 -1.68 3.34 -1 3 C-0.67 2.01 -0.34 1.02 0 0 Z " fill="#B89E5C" transform="translate(620,457)"/>
<path d="M0 0 C0.66 0 1.32 0 2 0 C1.52 4.31 0.25 6.17 -3 9 C-3.33 8.01 -3.66 7.02 -4 6 C-2.19 2.81 -2.19 2.81 0 0 Z " fill="#1E0F04" transform="translate(661,399)"/>
<path d="M0 0 C1.65 0 3.3 0 5 0 C4.01 0.5 4.01 0.5 3 1 C2.17 3.48 2 5.35 2 8 C1.01 7.34 0.02 6.68 -1 6 C-0.67 4.02 -0.34 2.04 0 0 Z " fill="#CAA660" transform="translate(360,384)"/>
<path d="M0 0 C0 4.25 -1.82 6.39 -4 10 C-4.66 9.67 -5.32 9.34 -6 9 C-5.34 7.02 -4.68 5.04 -4 3 C-3.34 3 -2.68 3 -2 3 C-2 2.34 -2 1.68 -2 1 C-1.34 0.67 -0.68 0.34 0 0 Z " fill="#1F1307" transform="translate(606,326)"/>
<path d="M0 0 C0.66 0.33 1.32 0.66 2 1 C0.02 4.3 -1.96 7.6 -4 11 C-4.99 10.34 -5.98 9.68 -7 9 C-6.34 9 -5.68 9 -5 9 C-4.73 8.07 -4.46 7.14 -4.19 6.19 C-3.09 3.24 -2.38 1.94 0 0 Z " fill="#201003" transform="translate(625,294)"/>
<path d="M0 0 C2.4 2.88 4.47 5.56 6 9 C4.35 8.67 2.7 8.34 1 8 C0.67 5.36 0.34 2.72 0 0 Z " fill="#1C0D06" transform="translate(424,492)"/>
<path d="M0 0 C0.33 0.66 0.66 1.32 1 2 C0 4.38 0 4.38 -1.44 7.12 C-1.91 8.04 -2.38 8.95 -2.87 9.88 C-3.24 10.58 -3.62 11.28 -4 12 C-4.66 11.01 -5.32 10.02 -6 9 C-4.02 6.03 -2.04 3.06 0 0 Z " fill="#201205" transform="translate(608,482)"/>
<path d="M0 0 C0.33 0 0.66 0 1 0 C1.37 5.54 1.37 5.54 -0.5 7.88 C-1 8.25 -1.49 8.62 -2 9 C-2.66 8.67 -3.32 8.34 -4 8 C-2.88 5.03 -1.78 2.67 0 0 Z " fill="#211106" transform="translate(655,408)"/>
<path d="M0 0 C1.32 0 2.64 0 4 0 C5.56 2.81 5.56 2.81 7 6 C6.67 6.99 6.34 7.98 6 9 C3.6 6.12 1.53 3.44 0 0 Z " fill="#1F1407" transform="translate(464,397)"/>
<path d="M0 0 C2.06 2.19 2.06 2.19 4 5 C3.75 7.81 3.75 7.81 3 10 C2.67 9.34 2.34 8.68 2 8 C1.34 8 0.68 8 0 8 C-0.8 4.71 -1.1 3.29 0 0 Z " fill="#191207" transform="translate(402,457)"/>
<path d="M0 0 C2.25 2.69 3.88 4.65 5 8 C4.01 8.33 3.02 8.66 2 9 C-0.29 5.56 -0.18 4.01 0 0 Z " fill="#221308" transform="translate(314,319)"/>
<path d="M0 0 C2.4 2.88 4.47 5.56 6 9 C5.01 9 4.02 9 3 9 C1.44 7.19 1.44 7.19 0 5 C-0.66 4.01 -1.32 3.02 -2 2 C-1.34 2 -0.68 2 0 2 C0 1.34 0 0.68 0 0 Z " fill="#201506" transform="translate(298,294)"/>
<path d="M0 0 C1.27 2.55 0.8 3.43 0.06 6.12 C-0.13 6.85 -0.33 7.57 -0.53 8.32 C-0.76 9.15 -0.76 9.15 -1 10 C-2.32 9.34 -3.64 8.68 -5 8 C-3.35 5.36 -1.7 2.72 0 0 Z " fill="#AF965A" transform="translate(533,446)"/>
<path d="M0 0 C0.33 0.66 0.66 1.32 1 2 C1.99 2.33 2.98 2.66 4 3 C4.33 3.99 4.66 4.98 5 6 C3.02 6 1.04 6 -1 6 C-0.67 4.02 -0.34 2.04 0 0 Z " fill="#C9A260" transform="translate(490,442)"/>
<path d="M0 0 C3.2 2.98 4.91 6.19 7 10 C5.11 9.79 5.11 9.79 3 9 C1.95 6.93 1.95 6.93 1.25 4.44 C1.01 3.61 0.77 2.78 0.52 1.93 C0.35 1.3 0.18 0.66 0 0 Z " fill="#1F1103" transform="translate(355,384)"/>
<path d="M0 0 C0.66 0 1.32 0 2 0 C3.62 2.5 3.62 2.5 5 5 C4.34 5 3.68 5 3 5 C2.67 5.99 2.34 6.98 2 8 C0.44 5.69 0.44 5.69 -1 3 C-0.67 2.01 -0.34 1.02 0 0 Z " fill="#B69B56" transform="translate(356,381)"/>
<path d="M0 0 C0.66 1.32 1.32 2.64 2 4 C1.01 5.49 1.01 5.49 0 7 C-0.66 7 -1.32 7 -2 7 C-2.33 7.66 -2.66 8.32 -3 9 C-3.66 8.67 -4.32 8.34 -5 8 C-3.35 5.36 -1.7 2.72 0 0 Z " fill="#1E1304" transform="translate(678,372)"/>
<path d="M0 0 C2.25 2.69 3.88 4.65 5 8 C4.01 8.33 3.02 8.66 2 9 C0.14 5.87 -0.2 3.63 0 0 Z " fill="#1F1207" transform="translate(319,327)"/>
<path d="M0 0 C0.66 1.32 1.32 2.64 2 4 C0.35 5.65 -1.3 7.3 -3 9 C-3.66 8.67 -4.32 8.34 -5 8 C-3.35 5.36 -1.7 2.72 0 0 Z " fill="#AD955A" transform="translate(581,368)"/>
<path d="M0 0 C3.2 2.98 4.91 6.19 7 10 C5.11 9.79 5.11 9.79 3 9 C1.95 6.93 1.95 6.93 1.25 4.44 C1.01 3.61 0.77 2.78 0.52 1.93 C0.35 1.3 0.18 0.66 0 0 Z " fill="#B39259" transform="translate(442,362)"/>
<path d="M0 0 C0.33 0.66 0.66 1.32 1 2 C1.66 2 2.32 2 3 2 C3.33 4.31 3.66 6.62 4 9 C1.28 6.65 0.19 4.38 -1 1 C-0.67 0.67 -0.34 0.34 0 0 Z " fill="#170D04" transform="translate(415,313)"/>
<path d="M0 0 C0.99 0.5 0.99 0.5 2 1 C2 1.66 2 2.32 2 3 C2.99 3.33 3.98 3.66 5 4 C6.19 7.56 6.19 7.56 7 11 C4.04 8.25 1.88 5.58 0 2 C0 1.34 0 0.68 0 0 Z " fill="#C2A266" transform="translate(307,306)"/>
<path d="M0 0 C0.99 0 1.98 0 3 0 C3.33 0.99 3.66 1.98 4 3 C2.06 5.69 2.06 5.69 0 8 C-1.12 2.25 -1.12 2.25 0 0 Z " fill="#B99857" transform="translate(716,305)"/>
<path d="M0 0 C-1.12 2.97 -2.22 5.33 -4 8 C-4.99 7.67 -5.98 7.34 -7 7 C-3.86 0 -3.86 0 0 0 Z " fill="#BB9F70" transform="translate(738,278)"/>
<path d="M0 0 C0.99 0.33 1.98 0.66 3 1 C1.93 3.92 1.22 5.78 -1 8 C-1.93 5.39 -2.15 4.36 -1.06 1.75 C-0.71 1.17 -0.36 0.6 0 0 Z " fill="#1C0F04" transform="translate(523,456)"/>
<path d="M0 0 C4 6 4 6 4 9 C3.34 9 2.68 9 2 9 C0.68 6.36 -0.64 3.72 -2 1 C-1.34 0.67 -0.68 0.34 0 0 Z " fill="#191003" transform="translate(492,438)"/>
<path d="M0 0 C1.22 3.65 0.64 4.63 -1 8 C-1.66 8.66 -2.32 9.32 -3 10 C-3 8.02 -3 6.04 -3 4 C-2.34 4 -1.68 4 -1 4 C-0.67 2.68 -0.34 1.36 0 0 Z " fill="#150903" transform="translate(563,392)"/>
<path d="M0 0 C0.91 3.07 1.09 5.8 1 9 C0.01 9.5 0.01 9.5 -1 10 C-2.25 3.38 -2.25 3.38 0 0 Z " fill="#BC9D4F" transform="translate(575,378)"/>
<path d="M0 0 C0.33 0 0.66 0 1 0 C1 2.64 1 5.28 1 8 C0.01 8 -0.98 8 -2 8 C-2.69 6.25 -2.69 6.25 -3 4 C-1.62 1.75 -1.62 1.75 0 0 Z " fill="#BC9B54" transform="translate(588,357)"/>
<path d="M0 0 C0.99 0.33 1.98 0.66 3 1 C1.68 3.31 0.36 5.62 -1 8 C-1.33 8 -1.66 8 -2 8 C-2.12 5.12 -2.12 5.12 -2 2 C-1.34 1.34 -0.68 0.68 0 0 Z " fill="#B99F60" transform="translate(695,341)"/>
<path d="M0 0 C1.32 1.32 2.64 2.64 4 4 C3.34 5.32 2.68 6.64 2 8 C-0.15 5.85 -0.54 4.92 -1 2 C-0.67 1.34 -0.34 0.68 0 0 Z " fill="#1D1608" transform="translate(324,335)"/>
<path d="M0 0 C0.33 1.32 0.66 2.64 1 4 C0.34 4 -0.32 4 -1 4 C-1 5.32 -1 6.64 -1 8 C-2.32 8.33 -3.64 8.66 -5 9 C-3.5 5.89 -1.8 2.95 0 0 Z " fill="#281908" transform="translate(710,322)"/>
<path d="M0 0 C0.66 0.99 1.32 1.98 2 3 C1.34 4.32 0.68 5.64 0 7 C-0.99 6.67 -1.98 6.34 -3 6 C-2 4 -1 2 0 0 Z " fill="#C7A143" transform="translate(572,388)"/>
<path d="M0 0 C2.34 2.13 3.71 4.12 5 7 C3.02 7 1.04 7 -1 7 C-0.67 4.69 -0.34 2.38 0 0 Z " fill="#241A0B" transform="translate(340,360)"/>
<path d="M0 0 C3.08 2.77 4.69 5.06 6 9 C5.01 8.67 4.02 8.34 3 8 C3 7.34 3 6.68 3 6 C2.34 6 1.68 6 1 6 C0.67 4.02 0.34 2.04 0 0 Z " fill="#1E1304" transform="translate(334,351)"/>
<path d="M0 0 C0.33 0 0.66 0 1 0 C0.67 2.31 0.34 4.62 0 7 C-0.99 7 -1.98 7 -3 7 C-1.12 1.12 -1.12 1.12 0 0 Z " fill="#BEA165" transform="translate(596,344)"/>
<path d="M0 0 C0.66 0.66 1.32 1.32 2 2 C0.68 4.31 -0.64 6.62 -2 9 C-2.66 8.34 -3.32 7.68 -4 7 C-2.68 4.69 -1.36 2.38 0 0 Z " fill="#231305" transform="translate(615,309)"/>
<path d="M0 0 C1.5 1.19 1.5 1.19 3 3 C3.19 5.69 3.19 5.69 3 8 C2.01 8 1.02 8 0 8 C0 5.36 0 2.72 0 0 Z " fill="#C5A649" transform="translate(471,738)"/>
<path d="M0 0 C3 1 3 1 5 4 C4.62 6.19 4.62 6.19 4 8 C0 2.25 0 2.25 0 0 Z " fill="#AE945E" transform="translate(438,513)"/>
<path d="M0 0 C1.38 1.29 2.71 2.63 4 4 C4 4.66 4 5.32 4 6 C2.68 5.67 1.36 5.34 0 5 C-0.56 3.06 -0.56 3.06 -1 1 C-0.67 0.67 -0.34 0.34 0 0 Z " fill="#180D06" transform="translate(433,507)"/>
<path d="M0 0 C1.98 0.99 1.98 0.99 4 2 C4 2.99 4 3.98 4 5 C2.68 5.33 1.36 5.66 0 6 C0 4.02 0 2.04 0 0 Z " fill="#C49E60" transform="translate(511,474)"/>
<path d="M0 0 C2.48 0.99 2.48 0.99 5 2 C4.67 3.65 4.34 5.3 4 7 C1.5 4.83 0.56 3.27 0 0 Z " fill="#C4A067" transform="translate(412,471)"/>
<path d="M0 0 C2.53 2.36 3.89 3.66 5 7 C4.01 7.5 4.01 7.5 3 8 C3 7.34 3 6.68 3 6 C2.34 6 1.68 6 1 6 C0.67 4.02 0.34 2.04 0 0 Z " fill="#B7945C" transform="translate(499,455)"/>
<path d="M0 0 C0.66 0 1.32 0 2 0 C0.81 3.38 -0.28 5.65 -3 8 C-3 6.68 -3 5.36 -3 4 C-2.34 4 -1.68 4 -1 4 C-0.67 2.68 -0.34 1.36 0 0 Z " fill="#C3A269" transform="translate(627,448)"/>
<path d="M0 0 C0.33 0 0.66 0 1 0 C0.67 2.31 0.34 4.62 0 7 C-0.99 6.67 -1.98 6.34 -3 6 C-1.12 1.12 -1.12 1.12 0 0 Z " fill="#BA9C5D" transform="translate(542,432)"/>
<path d="M0 0 C1.32 1.65 2.64 3.3 4 5 C3.34 5.66 2.68 6.32 2 7 C2 6.34 2 5.68 2 5 C1.01 4.67 0.02 4.34 -1 4 C-1.33 3.01 -1.66 2.02 -2 1 C-1.34 0.67 -0.68 0.34 0 0 Z " fill="#BA975C" transform="translate(484,430)"/>
<path d="M0 0 C0.99 0.33 1.98 0.66 3 1 C1.62 3.5 1.62 3.5 0 6 C-0.66 6 -1.32 6 -2 6 C-2 4.68 -2 3.36 -2 2 C-1.34 2 -0.68 2 0 2 C0 1.34 0 0.68 0 0 Z " fill="#190D03" transform="translate(548,417)"/>
<path d="M0 0 C0.33 1.32 0.66 2.64 1 4 C0.34 4 -0.32 4 -1 4 C-1.33 5.32 -1.66 6.64 -2 8 C-2.66 7.34 -3.32 6.68 -4 6 C-2.68 4.02 -1.36 2.04 0 0 Z " fill="#B39A5B" transform="translate(555,411)"/>
<path d="M0 0 C0.66 0.33 1.32 0.66 2 1 C0.35 3.64 -1.3 6.28 -3 9 C-3.33 7.68 -3.66 6.36 -4 5 C-3.34 4.01 -2.68 3.02 -2 2 C-1.34 2 -0.68 2 0 2 C0 1.34 0 0.68 0 0 Z " fill="#BD9B5D" transform="translate(668,385)"/>
<path d="M0 0 C0.66 0 1.32 0 2 0 C0.93 2.92 0.22 4.78 -2 7 C-2.66 5.68 -3.32 4.36 -4 3 C-2.68 2.67 -1.36 2.34 0 2 C0 1.34 0 0.68 0 0 Z " fill="#BD9C5C" transform="translate(672,378)"/>
<path d="M0 0 C0.99 0 1.98 0 3 0 C2.34 1.98 1.68 3.96 1 6 C0.01 6 -0.98 6 -2 6 C-1.34 4.02 -0.68 2.04 0 0 Z " fill="#C1A467" transform="translate(677,368)"/>
<path d="M0 0 C1.32 0.33 2.64 0.66 4 1 C3.67 1.66 3.34 2.32 3 3 C2.01 3 1.02 3 0 3 C-0.33 3.99 -0.66 4.98 -1 6 C-1.33 5.34 -1.66 4.68 -2 4 C-1.06 1.88 -1.06 1.88 0 0 Z " fill="#BD9D65" transform="translate(622,301)"/>
</svg>
